<svg viewBox="-735 -420 1470 840" width="1470" height="840" style="background-color: rgb(255, 255, 255);" xmlns="http://www.w3.org/2000/svg"><path d="M-308.6646859934985,57.66746182762055L-346.3034153421933,52.39593923166289M-346.3034153421933,-295.58210484530815L-346.3034153421933,52.39593923166289M-346.3034153421933,52.39593923166289L-480.1650435731723,179.8303982545616M-308.6646859934985,-290.31058224935055L-308.6646859934985,57.66746182762055M-308.6646859934985,57.66746182762055L-442.5263142244776,185.1019208505192" style="fill:none;stroke:rgb(0,0,0);stroke-width:1;stroke-linecap:round"></path><path d="M-308.6646859934985,57.667461827620535L-346.3034153421934,52.3959392316629L-346.3034153421934,-295.58210484530815z" style="fill:rgb(238,238,238); fill-opacity: 0.61"></path><path d="M-129.35124009324602,56.598563789912745L-285.7269389367484,34.69723916560588M-285.7269389367484,-222.9811131879749L-285.7269389367484,34.69723916560588M-285.7269389367484,34.69723916560588L-384.85170957399157,129.06267972434134" style="fill:none;stroke:rgb(0,0,0);stroke-width:1;stroke-linecap:round"></path><path d="M-308.6646859934985,-290.3105822493505L-308.6646859934985,57.667461827620535L-346.3034153421934,-295.58210484530815zM-480.1650435731723,179.8303982545616L-346.3034153421934,52.3959392316629L-308.6646859934985,57.667461827620535z" style="fill:rgb(238,238,238); fill-opacity: 0.61"></path><path d="M-308.6646859934985,-290.31058224935055L-346.3034153421933,-295.58210484530815M-346.3034153421933,-295.58210484530815L-480.1650435731723,-168.1476458224095" style="fill:none;stroke:rgb(0,0,0);stroke-width:1;stroke-linecap:round"></path><path d="M-129.351240093246,56.598563789912745L-285.7269389367484,34.697239165605886L-285.7269389367484,-222.9811131879749z" style="fill:rgb(238,238,238); fill-opacity: 0.61"></path><path d="M-129.35124009324602,-201.07978856366805L-129.35124009324602,56.598563789912745M-129.35124009324602,56.598563789912745L-228.47601073048918,150.9640043486482M-308.6646859934985,-290.31058224935055L-442.5263142244776,-162.87612322645182M-152.373923252006,49.11189995956224L-308.7496220955084,27.210575335255378M-308.7496220955084,7.116293300021065L-308.7496220955084,27.210575335255378M-308.7496220955084,27.210575335255378L-316.47957332994315,34.56938432967348M-152.373923252006,29.01761792432793L-308.7496220955084,7.116293300021065M-308.7496220955084,7.116293300021065L-316.47957332994315,14.475102294439175" style="fill:none;stroke:rgb(0,0,0);stroke-width:1;stroke-linecap:round"></path><path d="M-308.7496220955084,7.116293300021063L-308.7496220955084,27.210575335255378L-316.47957332994315,14.475102294439175z" style="fill:rgb(153,221,255); fill-opacity: 0.41"></path><path d="M-442.52631422447746,185.10192085051924L-308.6646859934985,57.667461827620535L-308.6646859934985,-290.3105822493505z" style="fill:rgb(238,238,238); fill-opacity: 0.61"></path><path d="M-308.7496220955084,27.210575335255378L-316.47957332994315,34.56938432967349L-316.47957332994315,14.475102294439175z" style="fill:rgb(153,221,255); fill-opacity: 0.41"></path><path d="M-316.47957332994315,14.475102294439175L-316.47957332994315,34.56938432967348M-316.47957332994315,34.56938432967348L-160.10387448644076,56.47070895398035" style="fill:none;stroke:rgb(0,0,0);stroke-width:1;stroke-linecap:round"></path><path d="M-152.373923252006,49.111899959562244L-308.7496220955084,27.210575335255378L-308.7496220955084,7.116293300021063zM-316.47957332994315,34.56938432967349L-308.7496220955084,27.210575335255378L-152.373923252006,49.111899959562244z" style="fill:rgb(153,221,255); fill-opacity: 0.41"></path><path d="M-316.47957332994315,14.475102294439175L-160.10387448644076,36.376426918746034" style="fill:none;stroke:rgb(0,0,0);stroke-width:1;stroke-linecap:round"></path><path d="M-384.85170957399157,129.06267972434134L-285.7269389367484,34.697239165605886L-129.351240093246,56.598563789912745z" style="fill:rgb(238,238,238); fill-opacity: 0.61"></path><path d="M92.13435593778414,74.35337285559855L-97.84479217879107,47.745690040927784M-97.84479217879107,-164.18223547353296L-97.84479217879107,47.745690040927784M-97.84479217879107,47.745690040927784L-179.37010005340017,125.35668015789814M-129.35124009324602,-201.07978856366805L-285.7269389367484,-222.9811131879749M-285.7269389367484,-222.9811131879749L-384.85170957399157,-128.61567262923947" style="fill:none;stroke:rgb(0,0,0);stroke-width:1;stroke-linecap:round"></path><path d="M-129.351240093246,-201.07978856366805L-129.351240093246,56.598563789912745L-285.7269389367484,-222.9811131879749z" style="fill:rgb(238,238,238); fill-opacity: 0.61"></path><path d="M-316.47957332994315,14.475102294439175L-160.10387448644076,36.37642691874604L-308.7496220955084,7.116293300021063zM-152.373923252006,29.01761792432793L-152.373923252006,49.111899959562244L-308.7496220955084,7.116293300021063zM-316.47957332994315,14.475102294439175L-316.47957332994315,34.56938432967349L-160.10387448644076,36.37642691874604z" style="fill:rgb(153,221,255); fill-opacity: 0.41"></path><path d="M-346.3034153421934,-295.58210484530815L-346.3034153421934,52.3959392316629L-480.1650435731723,-168.14764582240946z" style="fill:rgb(238,238,238); fill-opacity: 0.61"></path><path d="M-160.10387448644076,56.47070895398035L-316.47957332994315,34.56938432967349L-152.373923252006,49.111899959562244zM-160.10387448644076,36.37642691874604L-152.373923252006,29.01761792432793L-308.7496220955084,7.116293300021063z" style="fill:rgb(153,221,255); fill-opacity: 0.41"></path><path d="M-368.4373965516428,-50.18216961807202L-406.0761259003376,-55.45369221402966M-406.0761259003376,-99.66111269154514L-406.0761259003376,-55.45369221402966M-406.0761259003376,-55.45369221402966L-423.0820186160941,-39.26431242630983M-152.37392980335665,29.017617799313665L-152.37392980335665,49.11189983454798M-152.37392980335665,49.11189983454798L-160.1038810377914,56.47070882896608M-152.37392980335665,49.11189983454798L-119.95859602589472,36.35111613273686M-152.373923252006,29.01761792432793L-152.373923252006,49.11189995956224M-152.373923252006,49.11189995956224L-160.10387448644076,56.47070895398035" style="fill:none;stroke:rgb(0,0,0);stroke-width:1;stroke-linecap:round"></path><path d="M-316.47957332994315,34.56938432967349L-160.10387448644076,56.47070895398035L-160.10387448644076,36.37642691874604z" style="fill:rgb(153,221,255); fill-opacity: 0.41"></path><path d="M-152.37392980335665,29.017617799313665L-160.1038810377914,36.376426793731774M-152.37392980335665,29.017617799313665L-119.95859602589472,36.35111613273686M-152.373923252006,29.01761792432793L-160.10387448644076,36.376426918746034" style="fill:none;stroke:rgb(0,0,0);stroke-width:1;stroke-linecap:round"></path><path d="M-160.10387448644076,56.47070895398035L-152.373923252006,49.111899959562244L-152.373923252006,29.01761792432793z" style="fill:rgb(153,221,255); fill-opacity: 0.41"></path><path d="M-152.37392183295302,29.017618123074534L-152.37392183295302,49.11190015830885L-160.10387306738778,56.470709152726954z" style="fill:rgb(255,187,187); fill-opacity: 0.41"></path><path d="M-368.4373965516428,-50.18216961807202L-406.0761259003376,-55.45369221402966L-406.0761259003376,-99.66111269154516z" style="fill:rgb(153,221,255); fill-opacity: 0.41"></path><path d="M-368.43740082372125,-94.38959082801233L-368.43740082372125,-50.18217035049684M-368.43740082372125,-50.18217035049684L-385.4432935394777,-33.992790562777M-368.43740082372125,-50.18217035049684L-336.28518876590425,-55.53930675141782M-368.4373965516428,-94.38959009558751L-368.4373965516428,-50.18216961807202M-368.4373965516428,-50.18216961807202L-385.4432892673993,-33.99278983035219" style="fill:none;stroke:rgb(0,0,0);stroke-width:1;stroke-linecap:round"></path><path d="M-442.52631422447746,185.10192085051924L-480.1650435731723,179.8303982545616L-308.6646859934985,57.667461827620535z" style="fill:rgb(238,238,238); fill-opacity: 0.61"></path><path d="M-368.4373965516428,-94.38959009558751L-406.0761259003376,-99.66111269154514M-406.0761259003376,-99.66111269154514L-423.0820186160941,-83.47173290382531" style="fill:none;stroke:rgb(0,0,0);stroke-width:1;stroke-linecap:round"></path><path d="M-423.0820186160941,-39.26431242630981L-406.0761259003376,-55.45369221402966L-368.4373965516428,-50.18216961807202z" style="fill:rgb(153,221,255); fill-opacity: 0.41"></path><path d="M-152.37392183295302,49.11190015830885L-152.37392183295302,29.017618123074534L-119.95858867059675,36.35111865960658z" style="fill:rgb(255,187,187); fill-opacity: 0.41"></path><path d="M-160.10387448644076,36.37642691874604L-160.10387448644076,56.47070895398035L-152.373923252006,29.01761792432793z" style="fill:rgb(153,221,255); fill-opacity: 0.41"></path><path d="M-152.37392183295302,29.017618123074534L-160.10387306738778,56.470709152726954L-160.10387306738778,36.376427117492646z" style="fill:rgb(255,187,187); fill-opacity: 0.41"></path><path d="M-160.1038810377914,56.47070882896608L-160.1038810377914,36.376426793731774M-160.1038810377914,56.47070882896608L-119.95859602589472,36.35111613273686M-160.10387448644076,36.376426918746034L-160.10387448644076,56.47070895398035" style="fill:none;stroke:rgb(0,0,0);stroke-width:1;stroke-linecap:round"></path><path d="M-368.4373965516428,-94.38959009558752L-368.4373965516428,-50.18216961807202L-406.0761259003376,-99.66111269154516z" style="fill:rgb(153,221,255); fill-opacity: 0.41"></path><path d="M-160.10387306738778,56.470709152726954L-152.37392183295302,49.11190015830885L-119.95858867059675,36.35111865960658z" style="fill:rgb(255,187,187); fill-opacity: 0.41"></path><path d="M-406.0761259003376,-99.66111269154516L-406.0761259003376,-55.45369221402966L-423.0820186160941,-83.47173290382531z" style="fill:rgb(153,221,255); fill-opacity: 0.41"></path><path d="M-285.7269389367484,-222.9811131879749L-285.7269389367484,34.697239165605886L-384.85170957399157,-128.61567262923947z" style="fill:rgb(238,238,238); fill-opacity: 0.61"></path><path d="M-152.37392183295302,29.017618123074534L-160.10387306738778,36.376427117492646L-119.95858867059675,36.35111865960658z" style="fill:rgb(255,187,187); fill-opacity: 0.41"></path><path d="M-160.1038810377914,36.376426793731774L-119.95859602589472,36.35111613273686" style="fill:none;stroke:rgb(0,0,0);stroke-width:1;stroke-linecap:round"></path><path d="M92.13435593778411,74.35337285559854L-97.84479217879107,47.74569004092779L-97.84479217879107,-164.18223547353298z" style="fill:rgb(238,238,238); fill-opacity: 0.61"></path><path d="M-368.43740082372125,-94.38959082801233L-385.4432935394777,-78.2002110402925M-368.43740082372125,-94.38959082801233L-336.28518876590425,-55.53930675141782M-368.4373965516428,-94.38959009558751L-385.4432892673993,-78.20021030786768" style="fill:none;stroke:rgb(0,0,0);stroke-width:1;stroke-linecap:round"></path><path d="M-160.10387306738778,36.376427117492646L-160.10387306738778,56.470709152726954L-119.95858867059675,36.35111865960658z" style="fill:rgb(255,187,187); fill-opacity: 0.41"></path><path d="M-385.4432892673993,-33.99278983035217L-368.4373965516428,-50.18216961807202L-368.4373965516428,-94.38959009558752z" style="fill:rgb(153,221,255); fill-opacity: 0.41"></path><path d="M-368.43739641091616,-94.3895900758779L-368.43739641091616,-50.18216959836242L-385.4432891266726,-33.99278981064258zM-368.43739641091616,-50.18216959836242L-368.43739641091616,-94.3895900758779L-336.28518407533403,-55.53930609281424z" style="fill:rgb(255,187,187); fill-opacity: 0.41"></path><path d="M-406.0761259003376,-55.45369221402966L-423.0820186160941,-39.26431242630981L-423.0820186160941,-83.47173290382531z" style="fill:rgb(153,221,255); fill-opacity: 0.41"></path><path d="M-129.35124009324602,-201.07978856366805L-228.47601073048918,-106.7143480049326" style="fill:none;stroke:rgb(0,0,0);stroke-width:1;stroke-linecap:round"></path><path d="M-385.4432892673993,-33.99278983035217L-423.0820186160941,-39.26431242630981L-368.4373965516428,-50.18216961807202zM-385.4432892673993,-78.20021030786768L-368.4373965516428,-94.38959009558752L-406.0761259003376,-99.66111269154516z" style="fill:rgb(153,221,255); fill-opacity: 0.41"></path><path d="M-385.4432891266726,-33.99278981064258L-368.43739641091616,-50.18216959836242L-336.28518407533403,-55.53930609281424z" style="fill:rgb(255,187,187); fill-opacity: 0.41"></path><path d="M-423.0820186160941,-83.47173290382531L-423.0820186160941,-39.26431242630983M-423.0820186160941,-39.26431242630983L-385.4432892673993,-33.99278983035219" style="fill:none;stroke:rgb(0,0,0);stroke-width:1;stroke-linecap:round"></path><path d="M-442.52631422447746,-162.87612322645182L-308.6646859934985,-290.3105822493505L-346.3034153421934,-295.58210484530815z" style="fill:rgb(238,238,238); fill-opacity: 0.61"></path><path d="M92.13435593778414,-137.57455265886222L92.13435593778414,74.35337285559855M92.13435593778414,74.35337285559855L10.609048063175038,151.9643629725689" style="fill:none;stroke:rgb(0,0,0);stroke-width:1;stroke-linecap:round"></path><path d="M-228.47601073048915,150.9640043486482L-129.351240093246,56.598563789912745L-129.351240093246,-201.07978856366805z" style="fill:rgb(238,238,238); fill-opacity: 0.61"></path><path d="M-423.0820186160941,-83.47173290382531L-385.4432892673993,-78.20021030786768L-406.0761259003376,-99.66111269154516z" style="fill:rgb(153,221,255); fill-opacity: 0.41"></path><path d="M-346.3034153421934,52.3959392316629L-480.1650435731723,179.8303982545616L-480.1650435731723,-168.14764582240946z" style="fill:rgb(238,238,238); fill-opacity: 0.61"></path><path d="M-385.4432892673993,-78.20021030786768L-385.4432892673993,-33.99278983035217L-368.4373965516428,-94.38959009558752z" style="fill:rgb(153,221,255); fill-opacity: 0.41"></path><path d="M-368.43739641091616,-94.3895900758779L-385.4432891266726,-33.99278981064258L-385.4432891266726,-78.20021028815808zM-368.43739641091616,-94.3895900758779L-385.4432891266726,-78.20021028815808L-336.28518407533403,-55.53930609281424z" style="fill:rgb(255,187,187); fill-opacity: 0.41"></path><path d="M-385.4432935394777,-33.992790562777L-385.4432935394777,-78.2002110402925M-385.4432935394777,-33.992790562777L-336.28518876590425,-55.53930675141782M-385.4432892673993,-78.20021030786768L-385.4432892673993,-33.99278983035219M-385.4432935394777,-78.2002110402925L-336.28518876590425,-55.53930675141782" style="fill:none;stroke:rgb(0,0,0);stroke-width:1;stroke-linecap:round"></path><path d="M-423.0820186160941,-39.26431242630981L-385.4432892673993,-33.99278983035217L-385.4432892673993,-78.20021030786768zM-423.0820186160941,-83.47173290382531L-423.0820186160941,-39.26431242630981L-385.4432892673993,-78.20021030786768z" style="fill:rgb(153,221,255); fill-opacity: 0.41"></path><path d="M-423.0820186160941,-83.47173290382531L-385.4432892673993,-78.20021030786768" style="fill:none;stroke:rgb(0,0,0);stroke-width:1;stroke-linecap:round"></path><path d="M-385.4432891266726,-78.20021028815808L-385.4432891266726,-33.99278981064258L-336.28518407533403,-55.53930609281424z" style="fill:rgb(255,187,187); fill-opacity: 0.41"></path><path d="M92.13435593778414,-137.57455265886222L-97.84479217879107,-164.18223547353296M-97.84479217879107,-164.18223547353296L-179.37010005340017,-86.57124535656266" style="fill:none;stroke:rgb(0,0,0);stroke-width:1;stroke-linecap:round"></path><path d="M-179.37010005340017,125.35668015789813L-97.84479217879107,47.74569004092779L92.13435593778411,74.35337285559854zM-285.7269389367484,34.697239165605886L-384.85170957399157,129.06267972434134L-384.85170957399157,-128.61567262923947zM-228.47601073048915,150.9640043486482L-384.85170957399157,129.06267972434134L-129.351240093246,56.598563789912745zM92.13435593778411,-137.57455265886222L92.13435593778411,74.35337285559854L-97.84479217879107,-164.18223547353298z" style="fill:rgb(238,238,238); fill-opacity: 0.61"></path><path d="M327.2714663221531,93.65861359693812L123.40096891781789,65.10536665388355M123.40096891781789,-99.82523852721609L123.40096891781789,65.10536665388355M123.40096891781789,65.10536665388355L59.954783934436506,125.50527637612937" style="fill:none;stroke:rgb(0,0,0);stroke-width:1;stroke-linecap:round"></path><path d="M-228.47601073048915,-106.7143480049326L-129.351240093246,-201.07978856366805L-285.7269389367484,-222.9811131879749zM-97.84479217879107,-164.18223547353298L-97.84479217879107,47.74569004092779L-179.37010005340017,-86.57124535656266zM-442.52631422447746,-162.87612322645182L-442.52631422447746,185.10192085051924L-308.6646859934985,-290.3105822493505z" style="fill:rgb(238,238,238); fill-opacity: 0.61"></path><path d="M-480.1650435731723,-168.1476458224095L-480.1650435731723,179.8303982545616M-480.1650435731723,179.8303982545616L-442.5263142244776,185.1019208505192M-384.85170957399157,-128.61567262923947L-384.85170957399157,129.06267972434134M-384.85170957399157,129.06267972434134L-228.47601073048918,150.9640043486482M-442.5263142244776,-162.87612322645182L-442.5263142244776,185.1019208505192M92.13435593778414,-137.57455265886222L10.609048063175038,-59.96356254189189" style="fill:none;stroke:rgb(0,0,0);stroke-width:1;stroke-linecap:round"></path><path d="M327.2714663221531,93.65861359693811L123.40096891781789,65.10536665388355L123.40096891781789,-99.8252385272161zM-97.84479217879107,47.74569004092779L-179.37010005340017,125.35668015789813L-179.37010005340017,-86.57124535656266zM10.609048063175038,151.9643629725689L92.13435593778411,74.35337285559854L92.13435593778411,-137.57455265886222zM-480.1650435731723,-168.14764582240946L-442.52631422447746,-162.87612322645182L-346.3034153421934,-295.58210484530815zM10.609048063175038,151.9643629725689L-179.37010005340017,125.35668015789813L92.13435593778411,74.35337285559854z" style="fill:rgb(238,238,238); fill-opacity: 0.61"></path><path d="M327.2714663221531,-71.27199158416154L123.40096891781789,-99.82523852721609M123.40096891781789,-99.82523852721609L59.954783934436506,-39.42532880497029" style="fill:none;stroke:rgb(0,0,0);stroke-width:1;stroke-linecap:round"></path><path d="M-384.85170957399157,-128.61567262923947L-228.47601073048915,-106.7143480049326L-285.7269389367484,-222.9811131879749z" style="fill:rgb(238,238,238); fill-opacity: 0.61"></path><path d="M312.6865383273059,24.261622316065736L108.8160409229707,-4.291624626988819M108.8160409229707,-16.348193848129405L108.8160409229707,-4.291624626988819M108.8160409229707,-4.291624626988819L104.17807018230985,0.12366076966204631" style="fill:none;stroke:rgb(0,0,0);stroke-width:1;stroke-linecap:round"></path><path d="M-228.47601073048915,-106.7143480049326L-228.47601073048915,150.9640043486482L-129.351240093246,-201.07978856366805z" style="fill:rgb(238,238,238); fill-opacity: 0.61"></path><path d="M312.6865383273059,12.205053094925152L108.8160409229707,-16.348193848129405M108.8160409229707,-16.348193848129405L104.17807018230985,-11.932908451478541M327.2714663221531,-71.27199158416154L327.2714663221531,93.65861359693812M327.2714663221531,93.65861359693812L263.82528133877173,154.05852331918393M26.33782035689436,64.74620964499164L-163.64132775968085,38.13852683032089M-163.64132775968085,26.081957609180307L-163.64132775968085,38.13852683032089M-163.64132775968085,38.13852683032089L-168.2792985003417,42.55381222697176" style="fill:none;stroke:rgb(0,0,0);stroke-width:1;stroke-linecap:round"></path><path d="M108.81604092297074,-16.34819384812941L108.81604092297074,-4.2916246269888205L104.17807018230988,-11.932908451478543z" style="fill:rgb(153,221,255); fill-opacity: 0.41"></path><path d="M59.95478393443653,125.50527637612937L123.40096891781789,65.10536665388355L327.2714663221531,93.65861359693811z" style="fill:rgb(238,238,238); fill-opacity: 0.61"></path><path d="M108.81604092297074,-4.2916246269888205L104.17807018230988,0.12366076966204519L104.17807018230988,-11.932908451478543z" style="fill:rgb(153,221,255); fill-opacity: 0.41"></path><path d="M-480.1650435731723,179.8303982545616L-442.52631422447746,185.10192085051924L-442.52631422447746,-162.87612322645182z" style="fill:rgb(238,238,238); fill-opacity: 0.61"></path><path d="M104.17807018230985,-11.932908451478541L104.17807018230985,0.12366076966204631M104.17807018230985,0.12366076966204631L308.0485675866451,28.676907712716606M26.33782035689436,52.68964042385107L-163.64132775968085,26.081957609180307M-163.64132775968085,26.081957609180307L-168.2792985003417,30.497243005831173" style="fill:none;stroke:rgb(0,0,0);stroke-width:1;stroke-linecap:round"></path><path d="M10.609048063175038,-59.9635625418919L92.13435593778411,-137.57455265886222L-97.84479217879107,-164.18223547353298z" style="fill:rgb(238,238,238); fill-opacity: 0.61"></path><path d="M-163.64132775968082,26.081957609180304L-163.64132775968082,38.138526830320885L-168.2792985003417,30.497243005831173z" style="fill:rgb(153,221,255); fill-opacity: 0.41"></path><path d="M-228.47601073048918,-106.7143480049326L-228.47601073048918,150.9640043486482" style="fill:none;stroke:rgb(0,0,0);stroke-width:1;stroke-linecap:round"></path><path d="M-163.64132775968082,38.138526830320885L-168.2792985003417,42.55381222697175L-168.2792985003417,30.497243005831173z" style="fill:rgb(153,221,255); fill-opacity: 0.41"></path><path d="M104.17807018230985,-11.932908451478541L308.0485675866451,16.620338491576018M-179.37010005340017,-86.57124535656266L-179.37010005340017,125.35668015789814M-179.37010005340017,125.35668015789814L10.609048063175038,151.9643629725689M-168.2792985003417,30.497243005831173L-168.2792985003417,42.55381222697176M-168.2792985003417,42.55381222697176L21.699849616233507,69.16149504164251M571.4481311181839,127.85697332245014L367.5776337138487,99.3037263793956M367.5776337138487,-65.62687880170405L367.5776337138487,99.3037263793956M367.5776337138487,99.3037263793956L304.13144873046735,159.7036361016414M-168.2792985003417,30.497243005831173L21.699849616233507,57.10492582050193" style="fill:none;stroke:rgb(0,0,0);stroke-width:1;stroke-linecap:round"></path><path d="M327.2714663221531,-71.27199158416154L327.2714663221531,93.65861359693811L123.40096891781789,-99.8252385272161z" style="fill:rgb(238,238,238); fill-opacity: 0.61"></path><path d="M312.6865383273059,24.261622316065733L108.81604092297074,-4.2916246269888205L108.81604092297074,-16.34819384812941z" style="fill:rgb(153,221,255); fill-opacity: 0.41"></path><path d="M123.40096891781789,-99.8252385272161L123.40096891781789,65.10536665388355L59.95478393443653,-39.42532880497029z" style="fill:rgb(238,238,238); fill-opacity: 0.61"></path><path d="M104.17807018230988,0.12366076966204519L108.81604092297074,-4.2916246269888205L312.6865383273059,24.261622316065733z" style="fill:rgb(153,221,255); fill-opacity: 0.41"></path><path d="M-384.85170957399157,129.06267972434134L-228.47601073048915,150.9640043486482L-228.47601073048915,-106.7143480049326z" style="fill:rgb(238,238,238); fill-opacity: 0.61"></path><path d="M26.33782035689436,64.74620964499164L-163.64132775968082,38.138526830320885L-163.64132775968082,26.081957609180304zM-168.2792985003417,42.55381222697175L-163.64132775968082,38.138526830320885L26.33782035689436,64.74620964499164zM104.17807018230988,-11.932908451478543L308.0485675866451,16.62033849157601L108.81604092297074,-16.34819384812941zM104.17807018230988,-11.932908451478543L104.17807018230988,0.12366076966204519L308.0485675866451,16.62033849157601zM-168.2792985003417,30.497243005831173L21.699849616233504,57.10492582050193L-163.64132775968082,26.081957609180304zM-168.2792985003417,30.497243005831173L-168.2792985003417,42.55381222697175L21.699849616233504,57.10492582050193z" style="fill:rgb(153,221,255); fill-opacity: 0.41"></path><path d="M-384.85170957399157,-128.61567262923947L-384.85170957399157,129.06267972434134L-228.47601073048915,-106.7143480049326zM-480.1650435731723,-168.14764582240946L-480.1650435731723,179.8303982545616L-442.52631422447746,-162.87612322645182z" style="fill:rgb(238,238,238); fill-opacity: 0.61"></path><path d="M312.6865383273059,12.205053094925146L312.6865383273059,24.261622316065733L108.81604092297074,-16.34819384812941zM26.33782035689436,52.68964042385107L26.33782035689436,64.74620964499164L-163.64132775968082,26.081957609180304zM308.0485675866451,28.6769077127166L104.17807018230988,0.12366076966204519L312.6865383273059,24.261622316065733z" style="fill:rgb(153,221,255); fill-opacity: 0.41"></path><path d="M123.40096891781789,65.10536665388355L59.95478393443653,125.50527637612937L59.95478393443653,-39.42532880497029zM-179.37010005340017,-86.57124535656266L10.609048063175038,-59.9635625418919L-97.84479217879107,-164.18223547353298z" style="fill:rgb(238,238,238); fill-opacity: 0.61"></path><path d="M308.0485675866451,16.62033849157601L312.6865383273059,12.205053094925146L108.81604092297074,-16.34819384812941zM21.699849616233504,69.1614950416425L-168.2792985003417,42.55381222697175L26.33782035689436,64.74620964499164z" style="fill:rgb(153,221,255); fill-opacity: 0.41"></path><path d="M-384.85170957399157,-128.61567262923947L-228.47601073048918,-106.7143480049326" style="fill:none;stroke:rgb(0,0,0);stroke-width:1;stroke-linecap:round"></path><path d="M21.699849616233504,57.10492582050193L26.33782035689436,52.68964042385107L-163.64132775968082,26.081957609180304zM104.17807018230988,0.12366076966204519L308.0485675866451,28.6769077127166L308.0485675866451,16.62033849157601zM-168.2792985003417,42.55381222697175L21.699849616233504,69.1614950416425L21.699849616233504,57.10492582050193z" style="fill:rgb(153,221,255); fill-opacity: 0.41"></path><path d="M571.448131118184,127.85697332245017L367.5776337138487,99.3037263793956L367.5776337138487,-65.62687880170405z" style="fill:rgb(238,238,238); fill-opacity: 0.61"></path><path d="M327.2714663221531,-71.27199158416154L263.82528133877173,-10.872081861915731M312.68652703955814,12.205051715820465L312.68652703955814,24.26162075730417M312.68652703955814,24.26162075730417L308.04855629889727,28.676906153955034M312.68652703955814,24.26162075730417L350.67371596306606,26.086092773858844M312.6865383273059,12.205053094925152L312.6865383273059,24.261622316065736M312.6865383273059,24.261622316065736L308.0485675866451,28.676907712716606" style="fill:none;stroke:rgb(0,0,0);stroke-width:1;stroke-linecap:round"></path><path d="M10.609048063175038,-59.9635625418919L10.609048063175038,151.9643629725689L92.13435593778411,-137.57455265886222z" style="fill:rgb(238,238,238); fill-opacity: 0.61"></path><path d="M26.33782035689436,52.68964042385107L26.33782035689436,64.74620964499164M26.33782035689436,64.74620964499164L21.699849616233507,69.16149504164251M26.337824074962768,52.6896407866024L26.337824074962768,64.746210007743M26.337824074962768,64.746210007743L21.69985333430191,69.16149540439386M26.337824074962768,64.746210007743L70.39080755810367,54.655326888429066M312.68652703955814,12.205051715820465L308.04855629889727,16.620337112471326M312.68652703955814,12.205051715820465L350.67371596306606,26.086092773858844M312.6865383273059,12.205053094925152L308.0485675866451,16.620338491576018" style="fill:none;stroke:rgb(0,0,0);stroke-width:1;stroke-linecap:round"></path><path d="M263.82528133877173,154.05852331918393L327.2714663221531,93.65861359693811L327.2714663221531,-71.27199158416154z" style="fill:rgb(238,238,238); fill-opacity: 0.61"></path><path d="M312.6865348762346,12.205052611582568L312.6865348762346,24.261621832723154L308.0485641355737,28.67690722937402z" style="fill:rgb(255,187,187); fill-opacity: 0.41"></path><path d="M308.0485675866451,28.6769077127166L312.6865383273059,24.261622316065733L312.6865383273059,12.205053094925146z" style="fill:rgb(153,221,255); fill-opacity: 0.41"></path><path d="M26.33782035689436,52.68964042385107L21.699849616233507,57.10492582050193M26.337824074962768,52.6896407866024L21.69985333430191,57.10492618325328M26.337824074962768,52.6896407866024L70.39080755810367,54.655326888429066" style="fill:none;stroke:rgb(0,0,0);stroke-width:1;stroke-linecap:round"></path><path d="M26.33782393977496,64.74621014679487L26.33782393977496,52.689640925654295L70.39080726879914,54.65532582407241z" style="fill:rgb(255,187,187); fill-opacity: 0.41"></path><path d="M21.699849616233504,69.1614950416425L26.33782035689436,64.74620964499164L26.33782035689436,52.68964042385107z" style="fill:rgb(153,221,255); fill-opacity: 0.41"></path><path d="M26.33782393977496,52.689640925654295L26.33782393977496,64.74621014679487L21.69985319911411,69.16149554344574zM21.69985319911411,69.16149554344574L26.33782393977496,64.74621014679487L70.39080726879914,54.65532582407241zM312.6865348762346,24.261621832723154L312.6865348762346,12.205052611582568L350.67372379974256,26.08609366962095z" style="fill:rgb(255,187,187); fill-opacity: 0.41"></path><path d="M263.82528133877173,154.05852331918393L59.95478393443653,125.50527637612937L327.2714663221531,93.65861359693811z" style="fill:rgb(238,238,238); fill-opacity: 0.61"></path><path d="M312.6865348762346,12.205052611582568L308.0485641355737,28.67690722937402L308.0485641355737,16.620338008233432z" style="fill:rgb(255,187,187); fill-opacity: 0.41"></path><path d="M308.0485675866451,16.62033849157601L308.0485675866451,28.6769077127166L312.6865383273059,12.205053094925146z" style="fill:rgb(153,221,255); fill-opacity: 0.41"></path><path d="M571.4481311181839,-37.0736318586495L367.5776337138487,-65.62687880170405M367.5776337138487,-65.62687880170405L304.13144873046735,-5.226969079458252" style="fill:none;stroke:rgb(0,0,0);stroke-width:1;stroke-linecap:round"></path><path d="M308.0485641355737,28.67690722937402L312.6865348762346,24.261621832723154L350.67372379974256,26.08609366962095z" style="fill:rgb(255,187,187); fill-opacity: 0.41"></path><path d="M308.04855629889727,28.676906153955034L308.04855629889727,16.620337112471326M308.04855629889727,28.676906153955034L350.67371596306606,26.086092773858844M308.0485675866451,16.620338491576018L308.0485675866451,28.676907712716606M10.609048063175038,-59.96356254189189L10.609048063175038,151.9643629725689M21.69985333430191,69.16149540439386L70.39080755810367,54.655326888429066M21.69985333430191,57.10492618325328L70.39080755810367,54.655326888429066" style="fill:none;stroke:rgb(0,0,0);stroke-width:1;stroke-linecap:round"></path><path d="M26.33782393977496,52.689640925654295L21.69985319911411,57.104926322305154L70.39080726879914,54.65532582407241z" style="fill:rgb(255,187,187); fill-opacity: 0.41"></path><path d="M21.699849616233504,57.10492582050193L21.699849616233504,69.1614950416425L26.33782035689436,52.68964042385107z" style="fill:rgb(153,221,255); fill-opacity: 0.41"></path><path d="M26.33782393977496,52.689640925654295L21.69985319911411,69.16149554344574L21.69985319911411,57.104926322305154z" style="fill:rgb(255,187,187); fill-opacity: 0.41"></path><path d="M21.699849616233507,57.10492582050193L21.699849616233507,69.16149504164251M21.69985333430191,69.16149540439386L21.69985333430191,57.10492618325328M59.954783934436506,-39.42532880497029L59.954783934436506,125.50527637612937M59.954783934436506,125.50527637612937L263.82528133877173,154.05852331918393" style="fill:none;stroke:rgb(0,0,0);stroke-width:1;stroke-linecap:round"></path><path d="M21.69985319911411,57.104926322305154L21.69985319911411,69.16149554344574L70.39080726879914,54.65532582407241zM312.6865348762346,12.205052611582568L308.0485641355737,16.620338008233432L350.67372379974256,26.08609366962095z" style="fill:rgb(255,187,187); fill-opacity: 0.41"></path><path d="M308.04855629889727,16.620337112471326L350.67371596306606,26.086092773858844" style="fill:none;stroke:rgb(0,0,0);stroke-width:1;stroke-linecap:round"></path><path d="M308.0485641355737,16.620338008233432L308.0485641355737,28.67690722937402L350.67372379974256,26.08609366962095z" style="fill:rgb(255,187,187); fill-opacity: 0.41"></path><path d="M-179.37010005340017,125.35668015789813L10.609048063175038,151.9643629725689L10.609048063175038,-59.9635625418919z" style="fill:rgb(238,238,238); fill-opacity: 0.61"></path><path d="M-480.1650435731723,-168.1476458224095L-442.5263142244776,-162.87612322645182M571.4481311181839,-37.0736318586495L571.4481311181839,127.85697332245014M571.4481311181839,127.85697332245014L508.0019461348026,188.25688304469594" style="fill:none;stroke:rgb(0,0,0);stroke-width:1;stroke-linecap:round"></path><path d="M-179.37010005340017,-86.57124535656266L-179.37010005340017,125.35668015789813L10.609048063175038,-59.9635625418919zM304.13144873046735,159.70363610164142L367.5776337138487,99.3037263793956L571.448131118184,127.85697332245017zM263.82528133877173,-10.872081861915738L327.2714663221531,-71.27199158416154L123.40096891781789,-99.8252385272161z" style="fill:rgb(238,238,238); fill-opacity: 0.61"></path><path d="M555.5308339466759,37.86888883593372L351.66033654234064,9.315641892879155M351.66033654234064,-2.7409273282614306L351.66033654234064,9.315641892879155M351.66033654234064,9.315641892879155L347.0223658016798,13.730927289530023M-179.37010005340017,-86.57124535656266L10.609048063175038,-59.96356254189189M555.5308339466759,25.81231961479312L351.66033654234064,-2.7409273282614306M351.66033654234064,-2.7409273282614306L347.0223658016798,1.6743580683894348" style="fill:none;stroke:rgb(0,0,0);stroke-width:1;stroke-linecap:round"></path><path d="M351.6603365423407,-2.7409273282614297L351.6603365423407,9.315641892879155L347.0223658016798,1.674358068389436z" style="fill:rgb(153,221,255); fill-opacity: 0.41"></path><path d="M801.7334536604068,160.1097699047242L611.7543055438316,133.50208709005346M611.7543055438316,-31.428518091046183L611.7543055438316,133.50208709005346M611.7543055438316,133.50208709005346L548.3081205604502,193.90199681229927" style="fill:none;stroke:rgb(0,0,0);stroke-width:1;stroke-linecap:round"></path><path d="M351.6603365423407,9.315641892879155L347.0223658016798,13.730927289530019L347.0223658016798,1.674358068389436z" style="fill:rgb(153,221,255); fill-opacity: 0.41"></path><path d="M347.0223658016798,1.6743580683894348L347.0223658016798,13.730927289530023M347.0223658016798,13.730927289530023L550.892863206015,42.284174232584576" style="fill:none;stroke:rgb(0,0,0);stroke-width:1;stroke-linecap:round"></path><path d="M571.448131118184,-37.07363185864948L571.448131118184,127.85697332245017L367.5776337138487,-65.62687880170405zM367.5776337138487,-65.62687880170405L367.5776337138487,99.3037263793956L304.13144873046735,-5.226969079458248z" style="fill:rgb(238,238,238); fill-opacity: 0.61"></path><path d="M347.0223658016798,1.6743580683894348L550.892863206015,30.227605011443988" style="fill:none;stroke:rgb(0,0,0);stroke-width:1;stroke-linecap:round"></path><path d="M59.95478393443653,-39.42532880497029L263.82528133877173,-10.872081861915738L123.40096891781789,-99.8252385272161z" style="fill:rgb(238,238,238); fill-opacity: 0.61"></path><path d="M555.530833946676,37.868888835933724L351.6603365423407,9.315641892879155L351.6603365423407,-2.7409273282614297zM347.0223658016798,13.730927289530019L351.6603365423407,9.315641892879155L555.530833946676,37.868888835933724zM347.0223658016798,1.674358068389436L550.8928632060151,30.227605011444005L351.6603365423407,-2.7409273282614297zM347.0223658016798,1.674358068389436L347.0223658016798,13.730927289530019L550.8928632060151,30.227605011444005z" style="fill:rgb(153,221,255); fill-opacity: 0.41"></path><path d="M367.5776337138487,99.3037263793956L304.13144873046735,159.70363610164142L304.13144873046735,-5.226969079458248zM801.7334536604068,160.10976990472426L611.7543055438316,133.50208709005346L611.7543055438316,-31.428518091046186zM263.82528133877173,-10.872081861915738L263.82528133877173,154.05852331918393L327.2714663221531,-71.27199158416154z" style="fill:rgb(238,238,238); fill-opacity: 0.61"></path><path d="M59.954783934436506,-39.42532880497029L263.82528133877173,-10.872081861915731" style="fill:none;stroke:rgb(0,0,0);stroke-width:1;stroke-linecap:round"></path><path d="M555.530833946676,25.81231961479314L555.530833946676,37.868888835933724L351.6603365423407,-2.7409273282614297z" style="fill:rgb(153,221,255); fill-opacity: 0.41"></path><path d="M59.95478393443653,-39.42532880497029L59.95478393443653,125.50527637612937L263.82528133877173,-10.872081861915738z" style="fill:rgb(238,238,238); fill-opacity: 0.61"></path><path d="M550.8928632060151,42.28417423258459L347.0223658016798,13.730927289530019L555.530833946676,37.868888835933724zM550.8928632060151,30.227605011444005L555.530833946676,25.81231961479314L351.6603365423407,-2.7409273282614297z" style="fill:rgb(153,221,255); fill-opacity: 0.41"></path><path d="M59.95478393443653,125.50527637612937L263.82528133877173,154.05852331918393L263.82528133877173,-10.872081861915738z" style="fill:rgb(238,238,238); fill-opacity: 0.61"></path><path d="M571.4481311181839,-37.0736318586495L508.0019461348026,23.32627786359631M263.82528133877173,-10.872081861915731L263.82528133877173,154.05852331918393" style="fill:none;stroke:rgb(0,0,0);stroke-width:1;stroke-linecap:round"></path><path d="M347.0223658016798,13.730927289530019L550.8928632060151,42.28417423258459L550.8928632060151,30.227605011444005z" style="fill:rgb(153,221,255); fill-opacity: 0.41"></path><path d="M508.0019461348027,188.256883044696L571.448131118184,127.85697332245017L571.448131118184,-37.07363185864948zM508.0019461348027,188.256883044696L304.13144873046735,159.70363610164142L571.448131118184,127.85697332245017z" style="fill:rgb(238,238,238); fill-opacity: 0.61"></path><path d="M801.7334536604068,-4.820835276375432L611.7543055438316,-31.428518091046183M611.7543055438316,-31.428518091046183L548.3081205604502,28.971391631199616M555.5308339466759,25.81231961479312L555.5308339466759,37.86888883593372M555.5308339466759,37.86888883593372L550.892863206015,42.284174232584576M555.5308455084202,25.812320545040578L555.5308455084202,37.86888976618116M555.5308455084202,37.86888976618116L550.8928740305737,42.284175864622746M555.5308455084202,37.86888976618116L593.5180344319282,39.693361603078976M304.13144873046735,-5.226969079458252L304.13144873046735,159.7036361016414M304.13144873046735,159.7036361016414L508.0019461348026,188.25688304469594M555.5308339466759,25.81231961479312L550.892863206015,30.227605011443988M555.5308455084202,25.812320545040578L550.8928740305737,30.227606643482158M555.5308455084202,25.812320545040578L593.5180344319282,39.693361603078976" style="fill:none;stroke:rgb(0,0,0);stroke-width:1;stroke-linecap:round"></path><path d="M555.5308304956045,25.812319131450547L555.5308304956045,37.868888352591135L550.8928597549436,42.284173749242z" style="fill:rgb(255,187,187); fill-opacity: 0.41"></path><path d="M550.8928632060151,42.28417423258459L555.530833946676,37.868888835933724L555.530833946676,25.81231961479314z" style="fill:rgb(153,221,255); fill-opacity: 0.41"></path><path d="M548.3081205604503,193.90199681229927L611.7543055438316,133.50208709005346L801.7334536604068,160.10976990472426z" style="fill:rgb(238,238,238); fill-opacity: 0.61"></path><path d="M555.5308304956045,37.868888352591135L555.5308304956045,25.812319131450547L593.5180194191125,39.69336018948893zM555.5308304956045,25.812319131450547L550.8928597549436,42.284173749242L550.8928597549436,30.227604528101416z" style="fill:rgb(255,187,187); fill-opacity: 0.41"></path><path d="M550.8928632060151,30.227605011444005L550.8928632060151,42.28417423258459L555.530833946676,25.81231961479314z" style="fill:rgb(153,221,255); fill-opacity: 0.41"></path><path d="M550.8928597549436,42.284173749242L555.5308304956045,37.868888352591135L593.5180194191125,39.69336018948893z" style="fill:rgb(255,187,187); fill-opacity: 0.41"></path><path d="M550.892863206015,30.227605011443988L550.892863206015,42.284174232584576M550.8928740305737,42.284175864622746L550.8928740305737,30.227606643482158M550.8928740305737,42.284175864622746L593.5180344319282,39.693361603078976" style="fill:none;stroke:rgb(0,0,0);stroke-width:1;stroke-linecap:round"></path><path d="M508.0019461348027,23.32627786359632L571.448131118184,-37.07363185864948L367.5776337138487,-65.62687880170405z" style="fill:rgb(238,238,238); fill-opacity: 0.61"></path><path d="M555.5308304956045,25.812319131450547L550.8928597549436,30.227604528101416L593.5180194191125,39.69336018948893z" style="fill:rgb(255,187,187); fill-opacity: 0.41"></path><path d="M550.8928740305737,30.227606643482158L593.5180344319282,39.693361603078976" style="fill:none;stroke:rgb(0,0,0);stroke-width:1;stroke-linecap:round"></path><path d="M550.8928597549436,30.227604528101416L550.8928597549436,42.284173749242L593.5180194191125,39.69336018948893z" style="fill:rgb(255,187,187); fill-opacity: 0.41"></path><path d="M801.7334536604068,-4.8208352763754165L801.7334536604068,160.10976990472426L611.7543055438316,-31.428518091046186zM611.7543055438316,-31.428518091046186L611.7543055438316,133.50208709005346L548.3081205604503,28.971391631199616zM304.13144873046735,-5.226969079458248L508.0019461348027,23.32627786359632L367.5776337138487,-65.62687880170405zM611.7543055438316,133.50208709005346L548.3081205604503,193.90199681229927L548.3081205604503,28.971391631199616zM508.0019461348027,23.32627786359632L508.0019461348027,188.256883044696L571.448131118184,-37.07363185864948z" style="fill:rgb(238,238,238); fill-opacity: 0.61"></path><path d="M304.13144873046735,-5.226969079458252L508.0019461348026,23.32627786359631" style="fill:none;stroke:rgb(0,0,0);stroke-width:1;stroke-linecap:round"></path><path d="M304.13144873046735,-5.226969079458248L304.13144873046735,159.70363610164142L508.0019461348027,23.32627786359632zM304.13144873046735,159.70363610164142L508.0019461348027,188.256883044696L508.0019461348027,23.32627786359632z" style="fill:rgb(238,238,238); fill-opacity: 0.61"></path><path d="M508.0019461348026,23.32627786359631L508.0019461348026,188.25688304469594" style="fill:none;stroke:rgb(0,0,0);stroke-width:1;stroke-linecap:round"></path><path d="M738.2872686770255,220.50967962697004L548.3081205604503,193.90199681229927L801.7334536604068,160.10976990472426z" style="fill:rgb(238,238,238); fill-opacity: 0.61"></path><path d="M548.3081205604502,28.971391631199616L548.3081205604502,193.90199681229927M548.3081205604502,193.90199681229927L738.2872686770254,220.50967962697" style="fill:none;stroke:rgb(0,0,0);stroke-width:1;stroke-linecap:round"></path><path d="M738.2872686770255,55.579074445870376L801.7334536604068,-4.8208352763754165L611.7543055438316,-31.428518091046186zM548.3081205604503,28.971391631199616L738.2872686770255,55.579074445870376L611.7543055438316,-31.428518091046186z" style="fill:rgb(238,238,238); fill-opacity: 0.61"></path><path d="M548.3081205604502,28.971391631199616L738.2872686770254,55.57907444587037" style="fill:none;stroke:rgb(0,0,0);stroke-width:1;stroke-linecap:round"></path><path d="M548.3081205604503,28.971391631199616L548.3081205604503,193.90199681229927L738.2872686770255,55.579074445870376zM548.3081205604503,193.90199681229927L738.2872686770255,220.50967962697004L738.2872686770255,55.579074445870376z" style="fill:rgb(238,238,238); fill-opacity: 0.61"></path></svg>